<svg xmlns="http://www.w3.org/2000/svg" viewBox="0 0 525.12 512"><path d="M175.64 412.262c0 2.117-2.435 3.811-5.505 3.811-3.494.318-5.929-1.376-5.929-3.811 0-2.118 2.435-3.812 5.505-3.812 3.176-.317 5.929 1.377 5.929 3.812zm-32.926-4.765c-.741 2.118 1.376 4.553 4.553 5.188 2.752 1.059 5.928 0 6.564-2.117.635-2.118-1.377-4.553-4.553-5.506-2.753-.741-5.823.318-6.564 2.435zm46.795-1.799c-3.07.741-5.188 2.752-4.87 5.187.318 2.118 3.07 3.494 6.246 2.753 3.071-.741 5.188-2.753 4.87-4.87-.317-2.012-3.176-3.388-6.246-3.07zM259.172 0C112.329 0 0 111.482 0 258.325c0 117.411 73.898 217.883 179.451 253.244 13.552 2.435 18.316-5.929 18.316-12.811 0-6.564-.318-42.772-.318-65.005 0 0-74.109 15.881-89.672-31.549 0 0-12.07-30.809-29.432-38.749 0 0-24.245-16.622 1.693-16.304 0 0 26.362 2.117 40.867 27.315 23.185 40.866 62.04 29.114 77.18 22.127 2.435-16.94 9.316-28.691 16.939-35.679-59.182-6.564-118.893-15.139-118.893-116.987 0-29.115 8.046-43.725 24.985-62.358-2.752-6.882-11.751-35.255 2.753-71.887 22.127-6.881 73.051 28.586 73.051 28.586 21.174-5.929 43.937-9 66.487-9 22.551 0 45.313 3.071 66.487 9 0 0 50.924-35.573 73.051-28.586 14.504 36.738 5.505 65.005 2.753 71.887 16.939 18.739 27.314 33.349 27.314 62.358 0 102.165-62.358 110.317-121.54 116.987 9.741 8.364 17.999 24.245 17.999 49.124 0 35.679-.318 79.827-.318 88.509 0 6.881 4.87 15.245 18.316 12.81C453.34 476.208 525.12 375.736 525.12 258.325 525.12 111.482 406.015 0 259.172 0zM102.907 365.149c-1.377 1.059-1.059 3.494.741 5.505 1.694 1.694 4.129 2.435 5.505 1.059 1.376-1.059 1.059-3.494-.741-5.505-1.694-1.694-4.129-2.435-5.505-1.059zm-11.434-8.575c-.742 1.376.317 3.07 2.435 4.128 1.694 1.059 3.811.742 4.552-.741.741-1.376-.318-3.07-2.435-4.129-2.117-.635-3.811-.317-4.552.742zm34.302 37.69c-1.694 1.376-1.059 4.552 1.376 6.564 2.435 2.435 5.505 2.752 6.882 1.058 1.376-1.376.741-4.552-1.377-6.564-2.329-2.435-5.505-2.752-6.881-1.058zm-12.07-15.563c-1.693 1.058-1.693 3.811 0 6.246 1.694 2.435 4.553 3.494 5.929 2.435 1.694-1.376 1.694-4.129 0-6.564-1.482-2.435-4.235-3.494-5.929-2.117z"/></svg>