<svg xmlns="http://www.w3.org/2000/svg" viewBox="0 0 640 512"><path d="M320.016.002c-6.978.152-13.421 3.6-16.946 9.177L2.72 484.455c-7.731 12.241 1.938 27.54 17.409 27.545h481.772c10.619 0 19.228-8.596 19.228-19.2s-8.609-19.2-19.228-19.2H145.946l219.98-348.093 59.054 93.448-66.961 105.964.017.01a19.215 19.215 0 0 0-2.987 10.245c0 10.604 8.595 19.2 19.2 19.2a19.196 19.196 0 0 0 16.212-8.955l.018.013 57.215-90.535 156.82 248.152.007-.007a19.23 19.23 0 0 0 16.25 8.958c10.62 0 19.229-8.596 19.229-19.2a19.198 19.198 0 0 0-2.972-10.243l.005-.002-.052-.103-.02-.025-.017-.026L337.891 9.183c-3.422-5.416-9.626-8.869-16.462-9.162-.469-.02-.938-.027-1.403-.015l-.01-.004zm.459 53.588l22.735 35.977L100.521 473.6H55.048L320.475 53.59z"/></svg>